<?xml version="1.0" standalone="no"?>
<!DOCTYPE svg PUBLIC "-//W3C//DTD SVG 20010904//EN"
 "http://www.w3.org/TR/2001/REC-SVG-20010904/DTD/svg10.dtd">
<svg version="1.0" xmlns="http://www.w3.org/2000/svg"
 width="516.000000pt" height="128.000000pt" viewBox="0 0 516.000000 128.000000"
 preserveAspectRatio="xMidYMid meet">

<g transform="translate(0.000000,128.000000) scale(0.100000,-0.100000)"
fill="#000000" stroke="none">
<path d="M3799 1251 l-29 -29 0 -582 0 -582 29 -29 29 -29 582 0 582 0 29 29
29 29 0 582 0 582 -29 29 -29 29 -582 0 -582 0 -29 -29z m311 -157 c78 -46 78
-159 0 -199 -102 -53 -212 57 -154 154 34 57 100 76 154 45z m647 -297 c34
-18 54 -40 79 -87 16 -31 19 -65 22 -277 l4 -243 -96 0 -95 0 -3 206 -3 206
-28 24 c-48 41 -118 28 -153 -29 -17 -28 -19 -56 -22 -219 l-4 -188 -94 0 -94
0 0 305 0 305 90 0 90 0 0 -41 0 -42 20 26 c11 14 44 37 73 52 45 23 60 26
119 21 36 -2 79 -11 95 -19z m-607 -302 l0 -305 -95 0 -95 0 0 305 0 305 95 0
95 0 0 -305z"/>
<path d="M688 1094 c-76 -41 -74 -159 2 -199 101 -52 211 57 154 155 -33 55
-101 75 -156 44z"/>
<path d="M0 640 l0 -450 280 0 280 0 0 90 0 90 -180 0 -180 0 0 360 0 360
-100 0 -100 0 0 -450z"/>
<path d="M1630 640 l0 -450 95 0 94 0 3 146 3 145 100 -145 100 -145 119 -1
c93 0 116 3 109 12 -60 77 -223 309 -223 317 0 10 104 131 214 249 l30 32
-120 0 -119 -1 -105 -120 -105 -121 -3 266 -2 266 -95 0 -95 0 0 -450z"/>
<path d="M3390 918 c0 -162 -1 -170 -17 -156 -34 29 -83 48 -141 54 -126 14
-233 -49 -288 -168 -25 -56 -29 -74 -28 -158 0 -78 4 -105 23 -148 49 -110
170 -181 287 -169 59 6 99 24 149 68 l35 31 0 -41 0 -41 85 0 85 0 0 450 0
450 -95 0 -95 0 0 -172z m-37 -301 c42 -32 61 -83 54 -140 -10 -76 -68 -128
-149 -135 -44 -3 -59 0 -88 20 -51 35 -72 81 -66 147 6 63 28 98 77 124 49 26
127 19 172 -16z"/>
<path d="M1248 811 c-41 -13 -96 -50 -113 -74 -14 -21 -15 -20 -15 21 l0 42
-90 0 -90 0 0 -305 0 -305 95 0 95 0 0 168 c0 92 5 184 10 204 22 79 110 113
167 64 l28 -24 3 -206 3 -206 95 0 96 0 -4 243 c-3 212 -6 246 -22 277 -24 46
-45 69 -79 86 -34 18 -142 27 -179 15z"/>
<path d="M2469 807 c-99 -28 -173 -89 -213 -177 -31 -69 -29 -197 5 -270 45
-97 126 -159 237 -181 70 -15 162 -4 225 26 39 18 115 80 107 87 -3 2 -33 26
-66 52 l-62 47 -27 -25 c-62 -58 -156 -60 -211 -4 -17 18 -35 43 -39 56 l-6
22 215 0 214 0 7 31 c4 17 4 56 0 86 -14 110 -68 194 -152 233 -58 27 -169 35
-234 17z m149 -147 c29 -18 52 -54 52 -81 0 -5 -54 -9 -126 -9 l-125 0 6 23
c9 28 44 67 70 77 35 15 89 10 123 -10z"/>
<path d="M650 495 l0 -305 95 0 95 0 0 305 0 305 -95 0 -95 0 0 -305z"/>
</g>
</svg>
